# xmcd
#
# Track frame offsets: 
#        150
#        34972
#        59356
#        71964
#        82359
#        103289
#        111476
#        133801
#        148104
#        166142
#        205919
#        222994
#        236681
#        284068
#        299923
#        311225
#        332577
#
# Disc length: 4779 seconds
#
# Revision: 7
# Processed by: cddbd v1.5.2PL0 Copyright (c) Steve Scherf et al.
# Submitted via: ExactAudioCopy v1.3
#
DISCID=3112a911
DTITLE=Tchaikovsky - Best Tchaikovsky - Vol.5-6 ~ Chamber and Instrume
DTITLE=ntal
DYEAR=2010
DGENRE=Classical
TTITLE0=String Quartet No.1 in D Major, Op.11 - Andante Cantabile
TTITLE1=The Seasons, Op.37b - I. January  (Au coin du feu)
TTITLE2=The Seasons, Op.37b - II. February  (Carnaval)
TTITLE3=The Seasons, Op.37b - IV. April  (Perce-neige)
TTITLE4=The Seasons, Op.37b - VI. June  (Barcarolle)
TTITLE5=The Seasons, Op.37b - VII. July  (Chant des moissonneurs)
TTITLE6=The Seasons, Op.37b - X. October (Chant d'automne)
TTITLE7=The Seasons, Op.37b - XI. November  (Course en Troika)
TTITLE8=The Seasons, Op.37b - XII. December  (No.l)
TTITLE9=Piano Trio in A minor, Op.50 - II. Tema con variazioni  I-VII
TTITLE10=Melodie Op.42 no.3  (arr. Parhamovsky)
TTITLE11=Grande Sonate Op.37 - III. Scherzo - Allegro giocoso
TTITLE12=Souvenir de Florence Op. 70 - II. Adagio cantabile e con moto
TTITLE13=Valse, Op.40  no.9
TTITLE14=Humoresque, Op.10  no.2
TTITLE15=Nocturne, Op.10  no.1
TTITLE16=Valse-scherzo, Op.34
EXTD=CD 5: Chamber and Instrumental YEAR: 2010
EXTT0=
EXTT1=
EXTT2=
EXTT3=
EXTT4=
EXTT5=
EXTT6=
EXTT7=
EXTT8=
EXTT9=
EXTT10=
EXTT11=
EXTT12=
EXTT13=
EXTT14=
EXTT15=
EXTT16=
PLAYORDER=
